<?xml version="1.0" standalone="no"?>
<!DOCTYPE svg PUBLIC "-//W3C//DTD SVG 20010904//EN"
 "http://www.w3.org/TR/2001/REC-SVG-20010904/DTD/svg10.dtd">
<svg version="1.0" xmlns="http://www.w3.org/2000/svg"
 width="1280.000000pt" height="1280.000000pt" viewBox="0 0 1280.000000 1280.000000"
 preserveAspectRatio="xMidYMid meet">
<metadata>
Created by potrace 1.11, written by Peter Selinger 2001-2013
</metadata>
<g transform="translate(0.000000,1280.000000) scale(0.100000,-0.100000)"
fill="#000000" stroke="none">
<path d="M31 10543 c12 -21 30 -49 39 -63 9 -14 20 -32 23 -40 4 -8 32 -55 62
-104 30 -49 55 -93 55 -97 0 -5 3 -9 8 -9 4 0 19 -21 32 -47 14 -26 40 -69 58
-95 17 -26 32 -50 32 -52 0 -3 24 -45 54 -93 30 -48 90 -146 133 -217 43 -71
88 -145 101 -165 12 -20 25 -44 28 -53 4 -10 10 -18 15 -18 5 0 9 -5 9 -11 0
-6 20 -42 45 -80 25 -38 45 -71 45 -74 0 -3 56 -97 130 -215 36 -59 127 -209
136 -225 6 -11 48 -81 94 -155 104 -168 216 -354 242 -400 11 -19 26 -42 33
-50 8 -8 13 -17 12 -20 -1 -3 14 -30 34 -60 58 -90 99 -161 99 -170 0 -5 3
-10 8 -12 9 -4 192 -306 192 -318 0 -4 3 -10 8 -12 7 -3 92 -140 101 -163 2
-5 7 -12 10 -15 4 -3 60 -95 126 -205 66 -110 123 -201 128 -203 4 -2 7 -8 7
-13 0 -5 27 -52 60 -105 33 -52 60 -97 60 -99 0 -3 19 -35 43 -73 23 -37 47
-77 54 -88 7 -10 29 -48 50 -83 21 -35 45 -75 54 -90 111 -178 179 -293 179
-301 0 -5 6 -13 13 -17 6 -4 25 -33 41 -63 26 -48 60 -103 83 -136 10 -12 42
-71 57 -101 6 -13 14 -23 19 -23 4 0 7 -7 7 -15 0 -8 4 -15 9 -15 5 0 11 -8
14 -17 4 -10 16 -34 29 -54 13 -21 46 -74 73 -120 28 -46 59 -98 70 -115 47
-77 120 -200 124 -209 2 -5 7 -12 11 -15 4 -3 18 -25 32 -50 14 -25 58 -99 99
-165 41 -66 86 -140 99 -165 14 -25 27 -47 30 -50 5 -5 117 -187 150 -245 10
-16 68 -113 130 -215 62 -102 120 -198 129 -214 9 -17 24 -39 33 -50 10 -11
21 -29 24 -40 4 -11 21 -41 40 -67 18 -26 30 -50 27 -53 -4 -3 -1 -6 5 -6 7 0
12 -5 12 -11 0 -6 13 -30 30 -54 16 -24 30 -48 30 -54 0 -6 3 -11 8 -11 4 0
12 -10 18 -23 6 -12 61 -105 124 -207 62 -102 121 -199 131 -217 10 -17 30
-51 46 -75 15 -24 32 -52 38 -63 20 -35 39 -66 82 -134 24 -36 43 -71 43 -78
0 -6 4 -13 8 -15 8 -3 155 -243 176 -285 6 -13 14 -23 19 -23 4 0 7 -4 7 -9 0
-5 22 -46 50 -90 27 -44 50 -83 50 -86 0 -3 5 -11 10 -18 6 -7 57 -88 114
-182 l104 -170 1325 -3 1326 -2 20 29 c11 15 25 40 31 55 5 14 14 26 20 26 5
0 10 9 10 19 0 11 4 21 8 23 7 2 106 162 177 284 11 19 44 73 73 120 28 47 52
89 52 94 0 4 6 13 14 19 8 7 24 31 36 54 12 23 35 61 51 85 16 24 29 45 29 47
0 3 84 142 118 195 9 14 15 28 14 33 -1 4 2 7 8 7 5 0 10 7 10 15 0 8 4 15 9
15 5 0 11 8 14 18 6 18 38 74 48 82 3 3 9 12 12 20 4 8 15 27 25 42 9 15 46
76 82 135 35 60 68 110 72 111 4 2 8 7 8 12 0 4 24 47 53 95 28 48 57 95 62
104 6 9 57 94 115 189 58 95 110 180 115 190 48 82 70 118 75 122 9 9 41 64
47 83 3 9 9 17 14 17 5 0 9 4 9 9 0 6 26 52 58 103 32 51 61 100 65 108 4 8
17 31 30 51 29 47 167 273 188 307 9 15 41 69 73 120 31 51 56 97 56 102 0 6
4 10 8 10 5 0 19 19 31 43 12 23 35 62 51 87 16 25 34 54 40 65 6 11 19 34 29
50 34 55 237 390 252 415 8 13 20 30 27 38 6 7 12 20 12 28 0 8 4 14 8 14 4 0
18 19 30 43 12 23 31 56 42 72 11 17 25 41 32 55 7 14 15 27 19 30 3 3 17 24
30 47 21 36 246 408 329 543 15 25 65 108 112 185 47 77 142 234 211 348 70
115 127 213 127 218 0 5 5 9 10 9 6 0 10 7 10 15 0 8 5 15 10 15 6 0 9 3 8 8
-1 4 13 32 32 63 19 30 40 64 47 75 141 235 192 318 219 361 19 28 34 54 34
57 0 3 13 24 28 48 16 24 38 59 48 78 10 19 21 37 24 40 3 3 28 43 55 88 28
46 57 96 66 110 9 15 60 99 114 187 53 88 104 171 113 185 9 14 15 29 14 33
-1 4 5 10 13 13 8 4 15 13 15 20 0 8 5 20 10 27 15 18 90 137 90 143 0 3 19
35 43 72 61 98 63 101 104 172 20 36 41 70 46 75 17 21 267 438 267 446 0 5 5
9 10 9 6 0 10 4 10 9 0 5 18 38 39 72 22 35 68 111 102 169 34 57 68 111 76
118 7 7 11 17 8 22 -3 5 -1 10 3 12 4 1 26 32 47 68 21 36 45 75 53 88 l14 22
-1323 0 -1324 0 -210 -352 c-115 -193 -215 -356 -221 -362 -6 -6 -12 -15 -13
-21 -4 -18 -62 -114 -72 -120 -5 -4 -7 -11 -4 -16 4 -5 2 -9 -3 -9 -6 0 -22
-23 -36 -50 -15 -28 -47 -82 -71 -120 -25 -39 -45 -75 -45 -80 0 -6 -4 -10
-10 -10 -5 0 -10 -4 -10 -9 0 -5 -30 -58 -66 -118 -37 -59 -75 -122 -85 -140
-10 -17 -29 -50 -43 -72 -15 -22 -26 -44 -26 -48 0 -5 -11 -21 -25 -37 -14
-16 -25 -33 -25 -38 0 -5 -15 -33 -33 -61 -72 -112 -87 -137 -87 -142 0 -9
-54 -90 -63 -93 -4 -2 -5 -7 -2 -12 3 -4 -2 -13 -10 -20 -8 -7 -15 -19 -15
-26 0 -8 -4 -14 -10 -14 -5 0 -10 -5 -10 -11 0 -6 -20 -42 -45 -80 -24 -38
-41 -69 -37 -69 4 0 2 -4 -3 -8 -6 -4 -31 -41 -55 -82 -25 -41 -48 -76 -52
-78 -5 -2 -8 -8 -8 -14 0 -6 -16 -35 -35 -64 -19 -29 -35 -55 -35 -57 0 -3
-18 -34 -40 -68 -22 -35 -49 -80 -61 -99 -11 -19 -31 -53 -44 -75 -13 -22 -34
-58 -46 -80 -12 -22 -25 -42 -29 -45 -3 -3 -9 -12 -13 -20 -4 -8 -17 -31 -29
-51 -42 -68 -123 -204 -127 -214 -2 -5 -7 -12 -11 -15 -3 -3 -21 -32 -40 -65
-18 -33 -38 -67 -45 -75 -7 -8 -23 -35 -36 -60 -13 -25 -27 -49 -32 -55 -26
-34 -55 -85 -49 -85 4 0 2 -4 -3 -8 -13 -9 -165 -260 -165 -272 0 -6 -4 -10
-8 -10 -5 0 -17 -18 -27 -40 -10 -22 -22 -40 -27 -40 -4 0 -8 -5 -8 -12 0 -6
-22 -47 -50 -90 -27 -43 -50 -83 -50 -88 0 -5 -6 -15 -13 -22 -12 -12 -61 -91
-80 -128 -4 -8 -16 -28 -27 -45 -11 -16 -27 -45 -37 -62 -9 -18 -20 -33 -25
-33 -4 0 -8 -6 -8 -13 0 -7 -16 -36 -35 -66 -19 -29 -35 -54 -35 -55 0 -2 -24
-43 -54 -92 -30 -49 -84 -138 -121 -199 -36 -60 -71 -119 -78 -130 -7 -11 -27
-43 -44 -72 -18 -30 -33 -58 -33 -63 0 -6 -3 -10 -8 -10 -4 0 -18 -21 -32 -47
-13 -27 -27 -50 -31 -53 -3 -3 -12 -17 -20 -32 -14 -27 -185 -312 -247 -410
-18 -29 -37 -62 -42 -73 -6 -11 -18 -32 -28 -47 -9 -15 -48 -79 -87 -143 -38
-64 -85 -139 -103 -168 -18 -29 -37 -61 -43 -72 -11 -22 -16 -31 -73 -124
l-39 -64 -18 24 c-10 13 -24 36 -30 51 -6 16 -15 28 -20 28 -5 0 -9 5 -9 10 0
6 -23 47 -50 91 -28 44 -50 85 -50 90 0 5 -4 9 -10 9 -5 0 -10 5 -10 11 0 6
-13 29 -29 52 -15 23 -30 47 -32 52 -6 16 -243 409 -250 415 -3 3 -8 12 -12
20 -4 8 -17 31 -29 51 -13 20 -48 78 -78 129 -30 50 -60 99 -65 108 -6 10 -32
53 -58 97 -26 44 -53 89 -60 99 -7 11 -31 51 -54 88 -24 37 -40 68 -35 68 4 0
2 4 -4 8 -9 6 -49 69 -94 147 -43 74 -90 151 -100 162 -5 7 -10 14 -10 17 0 3
-29 53 -65 111 -36 59 -65 110 -65 115 0 5 -3 10 -8 12 -9 4 -82 126 -82 138
0 5 -4 10 -9 12 -9 3 -55 79 -73 121 -7 15 -16 27 -20 27 -4 0 -8 7 -8 15 0 8
-4 15 -9 15 -5 0 -11 8 -14 18 -4 9 -16 34 -29 54 -113 185 -244 405 -246 415
-2 7 -8 13 -13 13 -5 0 -9 5 -9 11 0 6 -13 30 -30 54 -16 24 -30 48 -30 53 0
5 -7 15 -15 22 -8 7 -13 16 -10 20 3 5 1 10 -4 12 -10 4 -151 236 -151 249 0
5 -4 9 -10 9 -5 0 -10 4 -10 8 0 5 -24 48 -52 96 -56 92 -57 93 -103 171 -16
28 -32 52 -35 55 -3 3 -10 14 -16 25 -6 11 -70 119 -143 240 -73 121 -137 227
-142 235 -4 8 -31 52 -59 97 -27 46 -50 87 -50 93 0 5 -3 10 -8 10 -4 0 -18
21 -32 48 -13 26 -27 49 -30 52 -14 13 -275 456 -272 463 1 5 -2 6 -7 3 -9 -6
-22 18 -20 38 0 5 -3 12 -8 15 -8 5 -162 252 -200 321 -8 14 -23 39 -33 55
-11 17 -27 45 -36 63 -9 17 -20 32 -24 32 -4 0 -11 11 -14 24 -3 14 -12 31
-19 38 -17 19 -47 69 -54 91 -3 9 -9 17 -14 17 -5 0 -9 5 -9 10 0 6 -23 47
-50 91 -27 44 -50 85 -50 90 0 5 -4 9 -10 9 -5 0 -10 5 -10 10 0 6 -22 46 -50
90 -27 44 -50 84 -50 90 0 5 -4 10 -10 10 -5 0 -10 7 -10 15 0 8 -4 15 -10 15
-5 0 -10 6 -10 13 0 7 -18 41 -40 75 -22 33 -40 65 -40 71 0 5 -7 12 -16 15
-9 3 -607 6 -1331 6 l-1315 0 23 -37z"/>
</g>
</svg>
